<svg width="70" height="44" viewBox="0 0 70 44" fill="none" xmlns="http://www.w3.org/2000/svg">
<g clip-path="url(#clip0_1_162)">
<path d="M45.6348 21.1039L46.9133 24.0542C47.1496 24.598 47.8001 24.8552 48.3677 24.6293C48.9363 24.4057 49.2059 23.783 48.9703 23.2389L47.6921 20.2896L45.6348 21.1039Z" fill="#333333"/>
<path d="M46.4878 23.0706L48.5448 22.2561L46.4878 23.0706Z" fill="#333333"/>
<path d="M42.9373 14.877L45.8465 16.0287L42.9373 14.877Z" fill="#333333"/>
<path d="M44.5203 8.89657C44.5203 10.4644 43.1914 11.735 41.553 11.735C39.9129 11.735 38.5837 10.4644 38.5837 8.89657C38.5837 7.32909 39.9129 6.05908 41.553 6.05908C43.1911 6.05908 44.5203 7.32909 44.5203 8.89657Z" fill="#333333"/>
<path d="M43.0358 8.89649C43.0358 9.68086 42.3719 10.3163 41.5527 10.3163C40.7325 10.3163 40.0669 9.68086 40.0669 8.89649C40.0669 8.11278 40.7325 7.4773 41.5527 7.4773C42.3719 7.47694 43.0358 8.11278 43.0358 8.89649Z" fill="#333333"/>
<path d="M39.4707 10.9197L35.41 20.29L34.3921 24.495L35.0777 24.7665L37.4677 21.1044L38.0363 19.7938C37.5926 18.7692 38.1009 17.5944 39.1724 17.1708L41.5271 11.7341C40.7262 11.7277 40.0016 11.4184 39.4707 10.9197Z" fill="#333333"/>
<path d="M43.633 10.9189C43.1018 11.4183 42.3766 11.7276 41.5757 11.7337L45.0685 19.7921L47.1249 18.9781L43.633 10.9189Z" fill="#333333"/>
<path d="M42.6652 4.63959V1.44617C42.6648 0.857652 42.1649 0.381592 41.552 0.381592C40.9371 0.381592 40.4388 0.857008 40.4385 1.44617L40.4388 4.63959H42.6652Z" fill="#333333"/>
<path d="M41.5528 6.05887C41.7425 6.05887 41.9285 6.07709 42.1085 6.10969V4.63965H40.9956V6.10969C41.1763 6.07676 41.3612 6.05887 41.5528 6.05887Z" fill="#333333"/>
<path d="M26.0956 25.9407H22.3928V0.380859H26.0963C26.9145 0.380859 27.5774 1.01699 27.5774 1.80136V24.5214H27.5771C27.5767 25.3058 26.9138 25.9407 26.0956 25.9407Z" fill="#333333"/>
<path d="M25.911 2.51126C26.2179 2.51126 26.4667 2.27281 26.4667 1.97865C26.4667 1.6845 26.2179 1.44604 25.911 1.44604C25.6042 1.44604 25.3555 1.6845 25.3555 1.97865C25.3555 2.27281 25.6042 2.51126 25.911 2.51126Z" fill="#333333"/>
<path d="M30.1694 15.4695C30.1694 15.7625 30.4184 16.0018 30.725 16.0018C31.032 16.0018 31.2806 15.7625 31.2806 15.4695C31.2806 15.7625 31.5299 16.0018 31.8362 16.0018C32.1431 16.0018 32.3917 15.7625 32.3917 15.4695C32.3917 15.7625 32.1431 16.0018 31.8362 16.0018C31.5299 16.0018 31.2806 15.7625 31.2806 15.4695C31.2806 15.7625 31.032 16.0018 30.725 16.0018C30.4184 16.0018 30.1694 15.7625 30.1694 15.4695Z" fill="#333333"/>
<path d="M30.9103 0.380859C30.5017 0.380859 30.1694 0.699402 30.1694 1.09175V1.09143V16.0016L31.2802 20.2615L32.3914 16.0016V1.09111V1.09143C32.3914 0.699722 32.0595 0.381179 31.6505 0.381179L30.9103 0.380859Z" fill="#333333"/>
</g>
<defs>
<clipPath id="clip0_1_162">
<rect width="68.5517" height="41.5272" fill="white" transform="translate(1.44824 0.142822)"/>
</clipPath>
</defs>
</svg>
